<svg width="48" height="48" viewBox="0 0 48 48" fill="none" xmlns="http://www.w3.org/2000/svg">
<path d="M14.7298 40.1472C14.695 40.0857 14.6639 40.0221 14.6368 39.9568C14.4497 39.5235 14.3922 39.0453 14.4713 38.58H3.3914L19.8574 9.60244L25.2634 19.1057L26.8305 16.3324L22.1181 8.0309C21.8923 7.60574 21.5635 7.24396 21.1618 6.97863C20.7601 6.71331 20.2983 6.5529 19.8186 6.51208C19.3399 6.53384 18.877 6.68951 18.4824 6.96138C18.0878 7.23325 17.7774 7.6104 17.5865 8.04994L0.905195 37.3791C0.655848 37.7931 0.512082 38.2622 0.486543 38.7448C0.461003 39.2275 0.554474 39.7091 0.758732 40.1472C1.01527 40.5518 1.3799 40.8765 1.81137 41.0846C2.24285 41.2927 2.72396 41.3759 3.20026 41.3248H17.1721C16.6957 41.3766 16.2143 41.2938 15.7827 41.0856C15.351 40.8774 14.9865 40.5523 14.7305 40.1472H14.7298Z" fill="#00C492"/>
<path d="M46.8515 37.3784L33.1433 13.2318C32.9185 12.8022 32.589 12.436 32.1853 12.1673C31.7817 11.8985 31.3168 11.7357 30.8336 11.694C30.3555 11.7147 29.8929 11.8694 29.4985 12.1404C29.1041 12.4114 28.7938 12.7878 28.603 13.2267L26.8301 16.3317L28.4075 19.1057L30.8483 14.7843L44.41 38.5794H39.253C39.3189 38.9727 39.2818 39.3763 39.1454 39.7511C39.1166 39.8339 39.0806 39.914 39.0377 39.9905L38.9938 40.0784C38.7136 40.4741 38.3403 40.7947 37.9068 41.0118C37.4733 41.229 36.993 41.3359 36.5083 41.3233H44.5755C45.0602 41.3363 45.5407 41.2295 45.9742 41.0124C46.4078 40.7952 46.7811 40.4744 47.0609 40.0784C47.2819 39.6537 47.3793 39.1757 47.3423 38.6984C47.3053 38.2212 47.1353 37.7639 46.8515 37.3784Z" fill="#008776"/>
<path d="M38.9949 40.0791L39.0389 39.9912C39.0815 39.9147 39.1173 39.8346 39.1458 39.7517C39.2823 39.377 39.3193 38.9734 39.2534 38.58C39.1773 38.1559 39.025 37.7489 38.8038 37.3791L28.4181 19.1057L26.8312 16.3324L25.2538 19.1057L14.8718 37.3791C14.6703 37.7534 14.5348 38.1597 14.4713 38.58C14.3877 39.0442 14.4403 39.5226 14.6228 39.9575C14.6499 40.0228 14.681 40.0864 14.7159 40.1479C14.9725 40.5524 15.3372 40.8769 15.7686 41.0849C16.2001 41.2928 16.6811 41.3759 17.1574 41.3248H36.4941C36.9811 41.3392 37.4641 41.2331 37.9003 41.0159C38.3364 40.7987 38.7122 40.4772 38.9942 40.0798L38.9949 40.0791ZM26.8305 21.8797L36.3235 38.5793H17.3419L26.8305 21.8797Z" fill="#2D4A5D"/>
</svg>
