<svg width="24" height="24" viewBox="0 0 24 24" fill="none" xmlns="http://www.w3.org/2000/svg">
<path d="M17.9999 4.48003C16.4086 2.88873 14.2504 1.99475 11.9999 1.99475C9.74949 1.99475 7.59123 2.88873 5.99993 4.48003C4.40863 6.07133 3.51465 8.2296 3.51465 10.48C3.51465 12.7305 4.40863 14.8887 5.99993 16.48L11.2699 21.76C11.3629 21.8538 11.4735 21.9282 11.5954 21.9789C11.7172 22.0297 11.8479 22.0558 11.9799 22.0558C12.1119 22.0558 12.2426 22.0297 12.3645 21.9789C12.4864 21.9282 12.597 21.8538 12.6899 21.76L17.9999 16.43C19.5846 14.8454 20.4748 12.6961 20.4748 10.455C20.4748 8.21398 19.5846 6.06471 17.9999 4.48003ZM16.5699 15L11.9999 19.59L7.42993 15C6.52707 14.0963 5.91241 12.9453 5.66362 11.6923C5.41484 10.4394 5.54312 9.14078 6.03223 7.96071C6.52135 6.78065 7.34935 5.77208 8.41156 5.06251C9.47377 4.35294 10.7225 3.97421 11.9999 3.97421C13.2773 3.97421 14.5261 4.35294 15.5883 5.06251C16.6505 5.77208 17.4785 6.78065 17.9676 7.96071C18.4567 9.14078 18.585 10.4394 18.3362 11.6923C18.0875 12.9453 17.4728 14.0963 16.5699 15ZM8.99993 7.41003C8.19264 8.2198 7.73932 9.3166 7.73932 10.46C7.73932 11.6035 8.19264 12.7003 8.99993 13.51C9.59969 14.1108 10.3635 14.5211 11.1956 14.6894C12.0276 14.8578 12.8909 14.7766 13.677 14.4562C14.4631 14.1358 15.1371 13.5903 15.6144 12.8883C16.0917 12.1863 16.3511 11.3589 16.3599 10.51C16.3644 9.94324 16.2553 9.38129 16.0388 8.85742C15.8224 8.33355 15.5032 7.85839 15.0999 7.46003C14.7036 7.05461 14.231 6.73157 13.7094 6.5095C13.1877 6.28743 12.6273 6.17071 12.0603 6.16606C11.4934 6.16141 10.9311 6.26893 10.4059 6.48242C9.88067 6.69591 9.40285 7.01116 8.99993 7.41003ZM13.6899 12.09C13.311 12.4748 12.8101 12.7159 12.2731 12.7723C11.736 12.8286 11.196 12.6967 10.7454 12.399C10.2949 12.1012 9.96173 11.6563 9.80294 11.1401C9.64415 10.624 9.66958 10.0687 9.87489 9.56919C10.0802 9.06971 10.4526 8.65705 10.9285 8.40177C11.4044 8.14649 11.9542 8.06444 12.4839 8.16965C13.0135 8.27486 13.4902 8.56079 13.8324 8.97856C14.1746 9.39634 14.3611 9.92 14.3599 10.46C14.3454 11.0773 14.0864 11.6636 13.6399 12.09H13.6899Z" fill="#F2F5FF"/>
</svg>
