<svg width="25" height="25" viewBox="0 0 25 25" fill="none" xmlns="http://www.w3.org/2000/svg">
<path d="M18.0146 9.99604C17.1194 9.99566 16.238 10.2171 15.4492 10.6406C15.3772 10.451 15.2493 10.2878 15.0823 10.1727C14.9154 10.0576 14.7174 9.99595 14.5146 9.99604H10.5146C10.3833 9.99597 10.2532 10.0218 10.1318 10.072C10.0105 10.1222 9.90022 10.1959 9.80735 10.2888C9.71447 10.3816 9.64082 10.4919 9.59059 10.6133C9.54036 10.7346 9.51454 10.8647 9.51462 10.996V22.996C9.51454 23.1274 9.54036 23.2575 9.59058 23.3788C9.64081 23.5002 9.71447 23.6104 9.80734 23.7033C9.90022 23.7962 10.0105 23.8698 10.1318 23.9201C10.2532 23.9703 10.3833 23.9961 10.5146 23.996H14.5146C14.646 23.9961 14.776 23.9703 14.8974 23.9201C15.0188 23.8698 15.129 23.7962 15.2219 23.7033C15.3148 23.6104 15.3884 23.5002 15.4387 23.3788C15.4889 23.2575 15.5147 23.1274 15.5146 22.996V17.496C15.5146 17.2308 15.62 16.9765 15.8075 16.7889C15.995 16.6014 16.2494 16.496 16.5146 16.496C16.7798 16.496 17.0342 16.6014 17.2217 16.7889C17.4093 16.9765 17.5146 17.2308 17.5146 17.496V22.996C17.5145 23.1274 17.5404 23.2575 17.5906 23.3788C17.6408 23.5002 17.7145 23.6104 17.8073 23.7033C17.9002 23.7962 18.0105 23.8698 18.1318 23.9201C18.2532 23.9703 18.3833 23.9961 18.5146 23.996H22.5146C22.646 23.9961 22.776 23.9703 22.8974 23.9201C23.0188 23.8698 23.129 23.7962 23.2219 23.7033C23.3148 23.6104 23.3884 23.5002 23.4387 23.3788C23.4889 23.2575 23.5147 23.1274 23.5146 22.996V15.496C23.5128 14.0379 22.9328 12.64 21.9017 11.609C20.8706 10.5779 19.4728 9.99785 18.0146 9.99604V9.99604ZM21.5146 21.996H19.5146V17.496C19.5146 16.7004 19.1985 15.9373 18.6359 15.3747C18.0733 14.8121 17.3103 14.496 16.5146 14.496C15.719 14.496 14.9559 14.8121 14.3933 15.3747C13.8307 15.9373 13.5146 16.7004 13.5146 17.496V21.996H11.5146V11.996H13.5146V12.6992C13.5147 12.9064 13.5792 13.1084 13.6991 13.2774C13.8189 13.4464 13.9883 13.574 14.1839 13.6426C14.3794 13.7112 14.5914 13.7174 14.7905 13.6604C14.9897 13.6034 15.1663 13.4859 15.2959 13.3242C15.7446 12.7542 16.3602 12.3386 17.0566 12.1354C17.753 11.9322 18.4955 11.9516 19.1803 12.1907C19.8652 12.4299 20.4583 12.877 20.8768 13.4696C21.2953 14.0622 21.5183 14.7706 21.5146 15.496V21.996ZM7.51462 9.99604H3.51462C3.38328 9.99597 3.25321 10.0218 3.13185 10.072C3.01049 10.1222 2.90022 10.1959 2.80735 10.2888C2.71447 10.3816 2.64082 10.4919 2.59059 10.6133C2.54036 10.7346 2.51454 10.8647 2.51462 10.996V22.996C2.51454 23.1274 2.54036 23.2575 2.59058 23.3788C2.64081 23.5002 2.71447 23.6104 2.80734 23.7033C2.90022 23.7962 3.01049 23.8698 3.13185 23.9201C3.25321 23.9703 3.38328 23.9961 3.51462 23.996H7.51462C7.64596 23.9961 7.77603 23.9703 7.89739 23.9201C8.01875 23.8698 8.12902 23.7962 8.2219 23.7033C8.31477 23.6104 8.38843 23.5002 8.43865 23.3788C8.48888 23.2575 8.5147 23.1274 8.51462 22.996V10.996C8.51469 10.8647 8.48888 10.7346 8.43865 10.6133C8.38842 10.4919 8.31477 10.3816 8.22189 10.2888C8.12902 10.1959 8.01875 10.1222 7.89739 10.072C7.77603 10.0218 7.64596 9.99597 7.51462 9.99604V9.99604ZM6.51462 21.996H4.51462V11.996H6.51462V21.996ZM5.52927 2.53904C5.09163 2.51284 4.65324 2.57594 4.24075 2.72449C3.82826 2.87303 3.45029 3.10393 3.12984 3.40313C2.80938 3.70234 2.55313 4.0636 2.37668 4.46494C2.20022 4.86628 2.10724 5.29933 2.1034 5.73773C2.09955 6.17614 2.18492 6.61074 2.3543 7.01512C2.52369 7.4195 2.77356 7.7852 3.08872 8.08998C3.40387 8.39476 3.77773 8.63225 4.18755 8.78802C4.59737 8.94378 5.03459 9.01455 5.47262 8.99604H5.50094C5.93974 9.0221 6.37924 8.95842 6.79259 8.80889C7.20595 8.65936 7.58447 8.42711 7.90504 8.12635C8.22561 7.82558 8.48148 7.46261 8.65703 7.05962C8.83257 6.65662 8.92411 6.22207 8.92604 5.7825C8.92796 5.34293 8.84024 4.90759 8.66824 4.50307C8.49623 4.09855 8.24355 3.73335 7.92564 3.42979C7.60772 3.12622 7.23125 2.89067 6.81922 2.73751C6.4072 2.58436 5.96827 2.51683 5.52926 2.53904H5.52927ZM5.50095 6.99604H5.47262C5.29969 7.01704 5.12426 7.00082 4.95811 6.94847C4.79196 6.89612 4.63892 6.80885 4.50926 6.6925C4.3796 6.57616 4.27632 6.43344 4.20633 6.27392C4.13635 6.11439 4.10128 5.94174 4.10349 5.76755C4.10349 5.02145 4.66306 4.53903 5.52927 4.53903C5.70397 4.51574 5.88163 4.53016 6.05028 4.58131C6.21894 4.63247 6.37468 4.71917 6.507 4.83558C6.63933 4.95199 6.74518 5.09541 6.81741 5.25617C6.88964 5.41693 6.92658 5.59131 6.92575 5.76755C6.92575 6.51364 6.36618 6.99604 5.50095 6.99604Z" fill="black"/>
</svg>
