<svg width="24" height="25" viewBox="0 0 24 25" fill="none" xmlns="http://www.w3.org/2000/svg">
<path d="M20.07 6.35297H15V7.76297H20.09L20.07 6.35297ZM19 16.053C18.6154 16.3078 18.1612 16.4371 17.7 16.423C17.3947 16.4548 17.0862 16.4233 16.7937 16.3303C16.5011 16.2374 16.2309 16.0851 16 15.883C15.573 15.3988 15.3507 14.7678 15.38 14.123H22C22.0477 13.4515 21.9904 12.7767 21.83 12.123C21.6749 11.501 21.4034 10.914 21.03 10.393C20.6541 9.88757 20.1686 9.47388 19.61 9.18297C18.9884 8.87651 18.3029 8.72226 17.61 8.73297C16.9583 8.72819 16.3123 8.854 15.71 9.10297C15.1585 9.33546 14.6588 9.6754 14.24 10.103C13.8224 10.5391 13.499 11.0565 13.29 11.623C13.0657 12.2345 12.9539 12.8816 12.96 13.533C12.9497 14.1936 13.0581 14.8507 13.28 15.473C13.4685 16.0365 13.7677 16.5567 14.16 17.003C14.5659 17.4411 15.0648 17.7828 15.62 18.003C16.2391 18.2389 16.8976 18.3543 17.56 18.343C18.4894 18.3719 19.407 18.1286 20.2 17.643C21.0009 17.0738 21.5775 16.2425 21.83 15.293H19.62C19.5017 15.6071 19.284 15.874 19 16.053ZM15.57 11.933C15.6478 11.6836 15.777 11.4534 15.9493 11.2571C16.1215 11.0607 16.3329 10.9026 16.57 10.793C16.884 10.6517 17.2258 10.5833 17.57 10.593C17.8186 10.5717 18.0689 10.6045 18.3036 10.6891C18.5384 10.7737 18.7521 10.908 18.93 11.083C19.2698 11.4989 19.4878 12.0008 19.56 12.533H15.41C15.4262 12.3297 15.463 12.1287 15.52 11.933H15.57ZM10.28 11.453C10.789 11.241 11.2312 10.8955 11.56 10.453C11.8622 9.98297 12.0124 9.4313 11.99 8.87297C12.0096 8.3638 11.9103 7.85708 11.7 7.39297C11.5233 6.99088 11.2397 6.64499 10.88 6.39297C10.4987 6.13094 10.0656 5.95363 9.61 5.87297C9.07082 5.75988 8.52087 5.70623 7.97 5.71297H2V18.293H8.1C8.65669 18.2934 9.21116 18.2228 9.75 18.083C10.2607 17.9508 10.7446 17.7309 11.18 17.433C11.6017 17.1407 11.9452 16.7492 12.18 16.293C12.4399 15.7828 12.5672 15.2153 12.55 14.643C12.5689 13.9337 12.37 13.2357 11.98 12.643C11.5606 12.0469 10.9385 11.6239 10.23 11.453H10.28ZM4.77 7.86297H7.36C7.59795 7.86267 7.83548 7.88275 8.07 7.92297C8.28595 7.95497 8.49334 8.02976 8.68 8.14297C8.86035 8.24498 9.00648 8.39807 9.1 8.58297C9.21582 8.80468 9.27102 9.05306 9.26 9.30297C9.27863 9.5182 9.24572 9.73478 9.16399 9.93477C9.08225 10.1348 8.95405 10.3124 8.79 10.453C8.43212 10.699 8.00388 10.8219 7.57 10.803H4.77V7.86297ZM9.61 15.303C9.50726 15.5068 9.35189 15.6794 9.16 15.803C8.9603 15.9272 8.74027 16.0152 8.51 16.063C8.25406 16.1203 7.99224 16.1471 7.73 16.143H4.73V12.693H7.73C8.24482 12.6704 8.75322 12.8142 9.18 13.103C9.37281 13.276 9.52217 13.492 9.61599 13.7335C9.7098 13.975 9.74543 14.2352 9.72 14.493C9.74704 14.7679 9.70936 15.0452 9.61 15.303V15.303Z" fill="black"/>
</svg>
