<svg width="160" height="160" viewBox="0 0 160 160" fill="none" xmlns="http://www.w3.org/2000/svg">
<g filter="url(#filter0_d_1015_311)">
<path d="M24 72C24 41.0721 49.0721 16 80 16C110.928 16 136 41.0721 136 72C136 102.928 110.928 128 80 128C49.0721 128 24 102.928 24 72Z" fill="#D9FBFF" shape-rendering="crispEdges"/>
<path d="M67.64 93.5296C67.5936 93.4475 67.5522 93.3627 67.516 93.2757C67.2666 92.698 67.19 92.0604 67.2954 91.44H52.5222L74.4769 52.8032L81.6848 65.4742L83.7744 61.7765L77.4911 50.7078C77.19 50.1409 76.7516 49.6586 76.2161 49.3048C75.6805 48.951 75.0647 48.7372 74.4252 48.6827C73.7869 48.7118 73.1696 48.9193 72.6435 49.2818C72.1173 49.6443 71.7035 50.1472 71.449 50.7332L49.2073 89.8387C48.8748 90.3908 48.6831 91.0162 48.649 91.6598C48.615 92.3033 48.7396 92.9454 49.012 93.5296C49.354 94.069 49.8402 94.5019 50.4155 94.7794C50.9908 95.0568 51.6323 95.1678 52.2673 95.0996H70.8964C70.2612 95.1688 69.6194 95.0583 69.0439 94.7808C68.4684 94.5032 67.9823 94.0697 67.641 93.5296H67.64Z" fill="#00C492"/>
<path d="M110.47 89.8378L92.1921 57.6424C91.8923 57.0695 91.453 56.5813 90.9147 56.223C90.3765 55.8646 89.7567 55.6476 89.1125 55.5919C88.475 55.6196 87.8582 55.8258 87.3323 56.1872C86.8064 56.5485 86.3927 57.0504 86.1383 57.6356L83.7744 61.7756L85.8776 65.4742L89.132 59.7124L107.214 91.4391H100.338C100.426 91.9635 100.377 92.5017 100.195 93.0014C100.156 93.1118 100.108 93.2187 100.051 93.3207L99.9927 93.4378C99.6192 93.9654 99.1214 94.3929 98.5434 94.6824C97.9654 94.9719 97.325 95.1146 96.6787 95.0977H107.435C108.081 95.1151 108.722 94.9727 109.3 94.6831C109.878 94.3935 110.376 93.9658 110.749 93.4378C111.043 92.8716 111.173 92.2342 111.124 91.5979C111.075 90.9615 110.848 90.3518 110.47 89.8378Z" fill="#008776"/>
<path d="M99.9939 93.4387L100.052 93.3216C100.109 93.2196 100.157 93.1127 100.195 93.0023C100.377 92.5027 100.426 91.9644 100.339 91.44C100.237 90.8744 100.034 90.3319 99.7391 89.8387L85.8915 65.4742L83.7756 61.7765L81.6724 65.4742L67.8298 89.8387C67.561 90.3378 67.3804 90.8795 67.2957 91.44C67.1842 92.0589 67.2544 92.6968 67.4978 93.2767C67.5339 93.3637 67.5753 93.4485 67.6218 93.5305C67.964 94.0698 68.4502 94.5025 69.0255 94.7798C69.6008 95.0571 70.2422 95.1679 70.8772 95.0996H96.6594C97.3088 95.1188 97.9528 94.9774 98.5344 94.6878C99.1159 94.3982 99.6169 93.9695 99.9929 93.4397L99.9939 93.4387ZM83.7746 69.1728L96.4319 91.439H71.1232L83.7746 69.1728Z" fill="#2D4A5D"/>
</g>
<defs>
<filter id="filter0_d_1015_311" x="0" y="0" width="160" height="160" filterUnits="userSpaceOnUse" color-interpolation-filters="sRGB">
<feFlood flood-opacity="0" result="BackgroundImageFix"/>
<feColorMatrix in="SourceAlpha" type="matrix" values="0 0 0 0 0 0 0 0 0 0 0 0 0 0 0 0 0 0 127 0" result="hardAlpha"/>
<feOffset dy="8"/>
<feGaussianBlur stdDeviation="12"/>
<feComposite in2="hardAlpha" operator="out"/>
<feColorMatrix type="matrix" values="0 0 0 0 0.0156863 0 0 0 0 0.0705882 0 0 0 0 0.137255 0 0 0 0.3 0"/>
<feBlend mode="normal" in2="BackgroundImageFix" result="effect1_dropShadow_1015_311"/>
<feBlend mode="normal" in="SourceGraphic" in2="effect1_dropShadow_1015_311" result="shape"/>
</filter>
</defs>
</svg>
